<?xml version="1.0" encoding="UTF-8" standalone="no"?>
<!-- Created with Inkscape (http://www.inkscape.org/) -->

<svg
   width="9.442318mm"
   height="9.2950373mm"
   viewBox="0 0 9.442318 9.2950373"
   version="1.1"
   id="svg1"
   xmlns="http://www.w3.org/2000/svg"
   xmlns:svg="http://www.w3.org/2000/svg">
  <defs
     id="defs1" />
  <g
     id="layer1"
     transform="translate(82.309705,-23.832135)">
    <g
       id="g35"
       transform="matrix(1.0912809,0,0,1.0912809,-124.06383,-177.89905)">
      <path
         id="circle34"
         style="fill:#000000;stroke:none;stroke-width:0.777999;stroke-linecap:round;stroke-linejoin:round;stroke-dasharray:none;stroke-dashoffset:2.35238;paint-order:markers fill stroke"
         d="m 42.587829,184.85725 a 4.2587724,4.2587724 0 0 0 -3.922799,2.62104 l -0.309695,4.7e-4 a 0.08546604,0.08546604 0 0 0 -0.08571,0.0857 v 0.0663 a 0.08546604,0.08546604 0 0 0 0.08003,0.0862 c 0.0395,0.003 0.08187,0.005 0.126908,0.008 a 0.08546604,0.08546604 0 0 0 0.0057,0 c 0.0252,0 0.05576,0.002 0.08855,0.005 a 4.2587724,4.2587724 0 0 0 -0.241979,1.38605 4.2587724,4.2587724 0 0 0 0.228246,1.3477 c -0.03071,0.004 -0.06024,0.007 -0.09234,0.0109 h -0.116964 a 0.08546604,0.08546604 0 0 0 -0.08619,0.0857 v 0.0668 a 0.08546604,0.08546604 0 0 0 0.08619,0.0857 h 0.301644 a 4.2587724,4.2587724 0 0 0 3.938426,2.66176 4.2587724,4.2587724 0 0 0 3.938426,-2.66176 h 0.225878 a 0.08546604,0.08546604 0 0 0 0.08571,-0.0857 v -0.0663 a 0.08546604,0.08546604 0 0 0 -0.07813,-0.0862 l -0.141115,-0.0104 a 4.2587724,4.2587724 0 0 0 0.227772,-1.34817 4.2587724,4.2587724 0 0 0 -0.232981,-1.38794 c 0.05132,-0.005 0.106928,-0.0114 0.118858,-0.0114 h 0.09566 a 0.08546604,0.08546604 0 0 0 0.08618,-0.0857 v -0.0668 a 0.08546604,0.08546604 0 0 0 -0.08618,-0.0857 h -0.308747 a 4.2587724,4.2587724 0 0 0 -3.931323,-2.62151 z" />
      <g
         id="text34">
        <path
           style="-inkscape-font-specification:'Elephant, Normal';fill:#f9f9f9;stroke-linecap:round;stroke-linejoin:round;stroke-dashoffset:2.35238;paint-order:markers fill stroke"
           d="m 39.889382,189.09723 v 0.98338 l 0.0084,0.19332 q 0.01261,0.13448 0.06724,0.19331 0.05463,0.0588 0.18491,0.0756 l 0.214327,0.0168 v 0.0672 h -2.0172 v -0.0672 h 0.130278 q 0.09246,-0.0126 0.176505,-0.021 0.08405,-0.0126 0.130277,-0.063 0.05043,-0.0546 0.06304,-0.18911 l 0.0084,-0.19332 v -1.99198 l -0.0084,-0.19332 q -0.01261,-0.13448 -0.06304,-0.18911 -0.05043,-0.0546 -0.142885,-0.0672 -0.09246,-0.0126 -0.159695,-0.0126 -0.06724,-0.004 -0.126075,-0.008 v -0.0672 l 1.878518,-0.004 q 0.390832,0 0.634577,0.0336 0.243745,0.0336 0.395035,0.13448 0.155493,0.10086 0.243745,0.25215 0.09245,0.14709 0.09245,0.34461 0,0.14709 -0.05463,0.29417 -0.05043,0.14709 -0.159695,0.25215 -0.109265,0.10507 -0.273163,0.1639 -0.159695,0.0588 -0.512705,0.0588 v 0.0294 q 0.214328,0.0462 0.357213,0.0883 0.147087,0.042 0.264757,0.12187 0.11767,0.0798 0.210125,0.23954 0.09666,0.15549 0.155493,0.34461 0.05883,0.18491 0.105062,0.26475 0.04623,0.0756 0.130278,0.0756 0.109265,0 0.142885,-0.13868 0.03782,-0.14289 0.03782,-0.3236 h 0.06724 q 0,0.20593 -0.02521,0.3278 -0.02522,0.12187 -0.126075,0.25635 -0.10086,0.13028 -0.289972,0.21433 -0.18491,0.0798 -0.40344,0.0798 -0.340403,0 -0.546325,-0.19332 -0.20172,-0.19752 -0.25215,-0.5127 -0.04623,-0.31939 -0.07564,-0.53792 -0.04623,-0.24375 -0.121873,-0.28157 -0.07565,-0.042 -0.163897,-0.0462 -0.08825,-0.004 -0.176505,-0.004 z m 0.3362,-0.0882 q 0.159695,-0.0252 0.239542,-0.23114 0.08405,-0.20592 0.08405,-0.45807 0,-0.20593 -0.08405,-0.40344 -0.08405,-0.20172 -0.20172,-0.23534 -0.11767,-0.0336 -0.210125,-0.0378 -0.09246,-0.004 -0.163897,-0.008 v 1.38682 h 0.142885 q 0.11767,0 0.193315,-0.0126 z m 2.824735,-0.92455 v 1.96256 l 0.0084,0.20172 q 0.01261,0.13448 0.06724,0.20593 0.05884,0.0672 0.189113,0.084 l 0.294175,0.021 v 0.0672 h -1.21032 v -0.0672 q 0.06304,-0.004 0.13448,-0.004 0.07564,-0.004 0.180707,-0.0168 0.105063,-0.0168 0.163898,-0.0883 0.06304,-0.0714 0.07565,-0.20172 l 0.0084,-0.20172 v -1.94996 l -0.0084,-0.19331 q -0.02942,-0.10086 -0.09246,-0.1681 -0.05883,-0.0672 -0.147088,-0.0799 -0.08405,-0.0126 -0.1681,-0.0168 -0.08405,-0.004 -0.126075,-0.008 v -0.0672 h 1.554925 l 0.70602,1.82388 0.634577,-1.82388 h 1.5129 v 0.0672 h -0.09666 q -0.04203,0 -0.176505,0.0168 -0.130278,0.0168 -0.180708,0.0714 -0.05043,0.0546 -0.06304,0.18911 l -0.0084,0.19332 v 1.99198 l 0.0084,0.19332 q 0.01261,0.13448 0.05463,0.18911 0.04623,0.0504 0.176505,0.0672 l 0.210125,0.0168 v 0.0672 H 44.83638 v -0.0672 l 0.193314,-0.0126 q 0.13448,-0.0168 0.176505,-0.063 0.04203,-0.0462 0.05463,-0.18911 l 0.0084,-0.19331 v -1.55913 q 0,-0.13028 0.0084,-0.30678 0.01261,-0.18071 0.02522,-0.3362 h -0.02522 l -0.172303,0.54212 -0.743842,2.1853 h -0.260555 l -1.02541,-2.54251 z"
           id="path14" />
      </g>
    </g>
  </g>
</svg>
